<svg width="552" height="294" viewBox="0 0 552 294" fill="none" xmlns="http://www.w3.org/2000/svg">
<path d="M25.4844 171L25.4844 91.0004L1.00036 91.0003L1.00034 293.26L25.4844 293.26L25.4844 212.5" stroke="#212529"/>
<path d="M3.48493 277.646L14.8398 277.646L14.8399 106.613L3.48494 106.613L3.48493 277.646Z" stroke="#212529"/>
<path d="M25.4844 279.066L1.00034 279.066" stroke="#212529" stroke-dasharray="2 2"/>
<path d="M25.4844 105.193L1.00034 105.193" stroke="#212529" stroke-dasharray="2 2"/>
<path d="M288.777 177.938V205.97" stroke="black"/>
<path d="M496.715 177.938V205.97" stroke="#868E96"/>
<path d="M55.293 177.936V205.968" stroke="black"/>
<path d="M329.229 171.195H191.551V178.292H329.229V171.195Z" stroke="#212529"/>
<path d="M329.229 205.969H191.551V212.356H329.229V205.969Z" stroke="#212529"/>
<path d="M191.551 205.969V178.291H199.357V205.969H191.551Z" stroke="#212529"/>
<circle cx="195.454" cy="192.13" r="1.77421" fill="#212529"/>
<path d="M253.301 205.969V178.291H261.107V205.969H253.301Z" stroke="#212529"/>
<circle cx="257.204" cy="192.13" r="1.77421" fill="#212529"/>
<path d="M526.523 171V91H551.007V293.259H526.523V212.5" stroke="#868E96"/>
<path d="M548.523 106.613H537.168V277.647H548.523V106.613Z" stroke="#868E96"/>
<path d="M526.523 105.193H551.007" stroke="#868E96" stroke-dasharray="2 2"/>
<path d="M526.523 279.066H551.007" stroke="#868E96" stroke-dasharray="2 2"/>
<path d="M537.167 171.193H399.488V178.29H537.167V171.193Z" stroke="#868E96"/>
<path d="M537.167 205.969H399.488V212.356H537.167V205.969Z" stroke="#868E96"/>
<path d="M399.488 205.969V178.291H407.295V205.969H399.488Z" stroke="#868E96"/>
<circle cx="403.391" cy="192.13" r="1.77421" fill="#868E96"/>
<path d="M461.234 205.967V178.289H469.041V205.967H461.234Z" stroke="#868E96"/>
<circle cx="465.137" cy="192.128" r="1.77421" fill="#868E96"/>
<path d="M399.491 172.613H343.426V176.871H399.491V172.613Z" stroke="#868E96"/>
<path d="M399.491 207.389H343.426V211.647H399.491V207.389Z" stroke="#868E96"/>
<path d="M319.293 171V91H343.422V293.259H319.293V212.5" stroke="#212529"/>
<path d="M340.581 106.613H329.227V277.647H340.581V106.613Z" stroke="#212529"/>
<path d="M318.582 105.193H343.066" stroke="#212529" stroke-dasharray="2 2"/>
<path d="M318.582 279.066H343.066" stroke="#212529" stroke-dasharray="2 2"/>
<path d="M14.8412 212.355L152.52 212.355L152.52 205.259L14.8412 205.259L14.8412 212.355Z" stroke="#212529"/>
<path d="M14.8412 177.582L152.52 177.582L152.52 171.195L14.8412 171.195L14.8412 177.582Z" stroke="#212529"/>
<path d="M152.52 177.582L152.52 205.26L144.713 205.26L144.713 177.582L152.52 177.582Z" stroke="#212529"/>
<circle cx="148.616" cy="191.421" r="1.77421" transform="rotate(-180 148.616 191.421)" fill="#212529"/>
<path d="M90.7734 177.58L90.7734 205.258L82.9669 205.258L82.9669 177.58L90.7734 177.58Z" stroke="#212529"/>
<circle cx="86.8703" cy="191.419" r="1.77421" transform="rotate(-180 86.8703 191.419)" fill="#212529"/>
<path d="M191.552 172.613H152.52V176.871H191.552V172.613Z" stroke="#212529"/>
<path d="M191.552 207.389H152.52V211.647H191.552V207.389Z" stroke="#212529"/>
<circle cx="8.91874" cy="125.231" r="1.77421" fill="#212529"/>
<circle cx="8.91874" cy="258.565" r="1.77421" fill="#212529"/>
<circle cx="335.235" cy="125.231" r="1.77421" fill="#212529"/>
<circle cx="335.235" cy="258.565" r="1.77421" fill="#212529"/>
<circle cx="543.13" cy="125.231" r="1.77421" fill="#868E96"/>
<circle cx="543.13" cy="258.565" r="1.77421" fill="#868E96"/>
<line x1="1.5" y1="76.5" x2="342.5" y2="76.5" stroke="#E03131" stroke-linecap="round" stroke-linejoin="round" stroke-dasharray="4 10"/>
<path d="M158.959 52.5078L156.976 53.6891V55.1328L158.959 53.937V63.0078H160.271V52.5078H158.959ZM166.585 63.2266C165.579 63.2266 164.573 62.8182 163.916 62.0599C163.275 61.3161 163.041 60.5432 163.041 59.537V55.9641C163.041 54.9432 163.275 54.1703 163.946 53.3974C164.587 52.6974 165.55 52.2745 166.585 52.2891C167.591 52.2745 168.568 52.6536 169.239 53.3974C169.896 54.1266 170.129 54.9286 170.129 55.9641V59.537C170.129 60.5286 169.91 61.3307 169.254 62.0745C168.598 62.8036 167.635 63.2266 166.585 63.2266ZM166.585 53.5286C165.827 53.5141 165.112 53.937 164.718 54.5495C164.456 54.9432 164.368 55.4099 164.368 55.9641V59.537C164.368 60.0474 164.441 60.5432 164.733 60.9661C165.141 61.5786 165.827 61.987 166.585 61.9724C167.358 61.987 168.058 61.5786 168.452 60.9661C168.743 60.5432 168.816 60.1057 168.816 59.537V55.9641C168.816 55.4245 168.743 55.0161 168.466 54.5641C168.073 53.937 167.358 53.5141 166.585 53.5286ZM172.291 55.162C172.276 55.7453 172.466 56.3286 172.86 56.7953C173.005 57.0141 173.21 57.2036 173.414 57.3786C173.093 57.5974 172.816 57.8891 172.612 58.1953C172.203 58.7203 172.028 59.3911 172.028 60.0036C172.043 60.8932 172.378 61.812 173.064 62.4099C173.705 62.9786 174.61 63.2266 175.455 63.2266C176.301 63.2266 177.191 62.9932 177.862 62.4099C178.576 61.812 178.882 60.9224 178.897 60.0036C178.912 59.3911 178.737 58.7203 178.314 58.1953C178.11 57.8891 177.832 57.5974 177.512 57.3786C177.716 57.2036 177.905 57.0141 178.066 56.7953C178.46 56.3286 178.635 55.7453 178.635 55.162C178.635 54.3161 178.299 53.4703 177.614 52.9599C177.016 52.4641 176.228 52.2891 175.455 52.2891C174.712 52.2891 173.924 52.4641 173.312 52.9599C172.626 53.4849 172.305 54.2578 172.291 55.162ZM173.662 55.162C173.676 54.6807 173.822 54.2432 174.157 53.9516C174.493 53.6599 174.974 53.5432 175.455 53.5432C175.951 53.5286 176.432 53.6599 176.768 53.9516C177.103 54.2432 177.264 54.6807 177.249 55.162C177.249 55.6286 177.103 56.0807 176.768 56.3578C176.432 56.6495 175.951 56.7807 175.455 56.7807C174.974 56.7807 174.493 56.6495 174.157 56.3578C173.807 56.0807 173.662 55.6286 173.662 55.162ZM176.972 61.462C176.593 61.812 176.024 61.987 175.455 61.987C174.901 61.987 174.332 61.812 173.953 61.462C173.56 61.0974 173.399 60.5578 173.399 60.0036C173.399 59.4495 173.56 58.9099 173.953 58.5453C174.332 58.1807 174.901 58.0203 175.455 58.0203C176.024 58.0203 176.593 58.1807 176.972 58.5453C177.351 58.9099 177.526 59.4495 177.526 60.0036C177.526 60.5578 177.351 61.0974 176.972 61.462ZM184.331 63.2266C183.325 63.2266 182.319 62.8182 181.662 62.0599C181.021 61.3161 180.787 60.5432 180.787 59.537V55.9641C180.787 54.9432 181.021 54.1703 181.692 53.3974C182.333 52.6974 183.296 52.2745 184.331 52.2891C185.337 52.2745 186.315 52.6536 186.985 53.3974C187.642 54.1266 187.875 54.9286 187.875 55.9641V59.537C187.875 60.5286 187.656 61.3307 187 62.0745C186.344 62.8036 185.381 63.2266 184.331 63.2266ZM184.331 53.5286C183.573 53.5141 182.858 53.937 182.465 54.5495C182.202 54.9432 182.115 55.4099 182.115 55.9641V59.537C182.115 60.0474 182.187 60.5432 182.479 60.9661C182.887 61.5786 183.573 61.987 184.331 61.9724C185.104 61.987 185.804 61.5786 186.198 60.9661C186.49 60.5432 186.562 60.1057 186.562 59.537V55.9641C186.562 55.4245 186.49 55.0161 186.212 54.5641C185.819 53.937 185.104 53.5141 184.331 53.5286Z" fill="#343A40"/>
<line x1="1.5" y1="28.5" x2="550.5" y2="28.5" stroke="#E03131" stroke-linecap="round" stroke-linejoin="round" stroke-dasharray="4 10"/>
<path d="M262.959 4.5L260.976 5.68125V7.125L262.959 5.92917V15H264.271V4.5H262.959ZM267.158 7.15417C267.143 7.7375 267.333 8.32083 267.727 8.7875C267.873 9.00625 268.077 9.19583 268.281 9.37083C267.96 9.58958 267.683 9.88125 267.479 10.1875C267.071 10.7125 266.896 11.3833 266.896 11.9958C266.91 12.8854 267.246 13.8042 267.931 14.4021C268.573 14.9708 269.477 15.2188 270.323 15.2188C271.168 15.2188 272.058 14.9854 272.729 14.4021C273.443 13.8042 273.75 12.9146 273.764 11.9958C273.779 11.3833 273.604 10.7125 273.181 10.1875C272.977 9.88125 272.7 9.58958 272.379 9.37083C272.583 9.19583 272.773 9.00625 272.933 8.7875C273.327 8.32083 273.502 7.7375 273.502 7.15417C273.502 6.30833 273.166 5.4625 272.481 4.95208C271.883 4.45625 271.096 4.28125 270.323 4.28125C269.579 4.28125 268.791 4.45625 268.179 4.95208C267.493 5.47708 267.173 6.25 267.158 7.15417ZM268.529 7.15417C268.543 6.67292 268.689 6.23542 269.025 5.94375C269.36 5.65208 269.841 5.53542 270.323 5.53542C270.818 5.52083 271.3 5.65208 271.635 5.94375C271.971 6.23542 272.131 6.67292 272.116 7.15417C272.116 7.62083 271.971 8.07292 271.635 8.35C271.3 8.64167 270.818 8.77292 270.323 8.77292C269.841 8.77292 269.36 8.64167 269.025 8.35C268.675 8.07292 268.529 7.62083 268.529 7.15417ZM271.839 13.4542C271.46 13.8042 270.891 13.9792 270.323 13.9792C269.768 13.9792 269.2 13.8042 268.821 13.4542C268.427 13.0896 268.266 12.55 268.266 11.9958C268.266 11.4417 268.427 10.9021 268.821 10.5375C269.2 10.1729 269.768 10.0125 270.323 10.0125C270.891 10.0125 271.46 10.1729 271.839 10.5375C272.218 10.9021 272.393 11.4417 272.393 11.9958C272.393 12.55 272.218 13.0896 271.839 13.4542ZM279.198 15.2188C278.192 15.2188 277.186 14.8104 276.53 14.0521C275.888 13.3083 275.655 12.5354 275.655 11.5292V7.95625C275.655 6.93542 275.888 6.1625 276.559 5.38958C277.2 4.68958 278.163 4.26667 279.198 4.28125C280.205 4.26667 281.182 4.64583 281.853 5.38958C282.509 6.11875 282.742 6.92083 282.742 7.95625V11.5292C282.742 12.5208 282.523 13.3229 281.867 14.0667C281.211 14.7958 280.248 15.2188 279.198 15.2188ZM279.198 5.52083C278.44 5.50625 277.725 5.92917 277.332 6.54167C277.069 6.93542 276.982 7.40208 276.982 7.95625V11.5292C276.982 12.0396 277.055 12.5354 277.346 12.9583C277.755 13.5708 278.44 13.9792 279.198 13.9646C279.971 13.9792 280.671 13.5708 281.065 12.9583C281.357 12.5354 281.43 12.0979 281.43 11.5292V7.95625C281.43 7.41667 281.357 7.00833 281.08 6.55625C280.686 5.92917 279.971 5.50625 279.198 5.52083ZM288.331 15.2188C287.325 15.2188 286.319 14.8104 285.662 14.0521C285.021 13.3083 284.787 12.5354 284.787 11.5292V7.95625C284.787 6.93542 285.021 6.1625 285.692 5.38958C286.333 4.68958 287.296 4.26667 288.331 4.28125C289.337 4.26667 290.315 4.64583 290.985 5.38958C291.642 6.11875 291.875 6.92083 291.875 7.95625V11.5292C291.875 12.5208 291.656 13.3229 291 14.0667C290.344 14.7958 289.381 15.2188 288.331 15.2188ZM288.331 5.52083C287.573 5.50625 286.858 5.92917 286.465 6.54167C286.202 6.93542 286.115 7.40208 286.115 7.95625V11.5292C286.115 12.0396 286.187 12.5354 286.479 12.9583C286.887 13.5708 287.573 13.9792 288.331 13.9646C289.104 13.9792 289.804 13.5708 290.198 12.9583C290.49 12.5354 290.562 12.0979 290.562 11.5292V7.95625C290.562 7.41667 290.49 7.00833 290.212 6.55625C289.819 5.92917 289.104 5.50625 288.331 5.52083Z" fill="#343A40"/>
</svg>
